<svg width="22" height="23" viewBox="0 0 22 23" fill="none" xmlns="http://www.w3.org/2000/svg">
<path d="M20.9337 17.713L20.9334 17.7128C20.1743 17.2717 19.415 16.8307 18.6556 16.3896C18.0662 16.0472 17.4768 15.7048 16.8874 15.3624C16.5439 15.163 16.1532 15.204 15.8508 15.485L15.8508 15.485C15.1423 16.1433 14.434 16.8013 13.7264 17.4594L13.3687 17.7921L12.9198 17.5994C9.45612 16.1125 6.54156 13.0593 5.1269 9.45783L4.96266 9.03971L5.25378 8.69759C5.88329 7.95779 6.5127 7.21735 7.14236 6.47659L7.14274 6.47615C7.42136 6.14889 7.47252 5.69669 7.26365 5.30325L20.9337 17.713ZM20.9337 17.713C21.1896 17.8615 21.3235 18.1932 21.2089 18.5202L21.2089 18.5203M20.9337 17.713L21.2089 18.5203M21.2089 18.5203C20.1738 21.4765 17.1918 22.9644 14.4289 21.9102C8.09677 19.4939 3.40014 14.5915 1.08029 7.94759C0.0449072 4.98194 1.53119 1.85315 4.3159 0.787524L4.31612 0.787437M21.2089 18.5203L4.31612 0.787437M4.31612 0.787437C4.5701 0.690153 4.86282 0.785334 5.01629 1.07341M4.31612 0.787437L5.01629 1.07341M5.01629 1.07341C5.76483 2.48306 6.51427 3.8935 7.26353 5.30303L5.01629 1.07341Z" stroke="#FFDF3F" stroke-width="1.5"/>
</svg>
