<svg width="127" height="59" viewBox="0 0 127 59" fill="none" xmlns="http://www.w3.org/2000/svg">
<g style="mix-blend-mode:luminosity" opacity="0.5">
<path fill-rule="evenodd" clip-rule="evenodd" d="M82.7996 3.46421L77.4861 0L77.4153 6.89307L82.7996 3.46421Z" fill="#008BD2"/>
<path fill-rule="evenodd" clip-rule="evenodd" d="M83.9196 5.74414L83.9536 12.6372L78.9539 9.17282L83.9196 5.74414Z" fill="#AFCA0B"/>
<path fill-rule="evenodd" clip-rule="evenodd" d="M75.4924 0.382812L75.3833 8.42077L60.1086 18.3809V10.1332L75.4924 0.382812Z" fill="#A1DAF8"/>
<path fill-rule="evenodd" clip-rule="evenodd" d="M82.7997 14.6878L76.5288 10.7227L60.1086 21.2374V29.4863L82.7997 14.6878Z" fill="#65B32E"/>
<path fill-rule="evenodd" clip-rule="evenodd" d="M49.3044 6.12695L49.3398 12.6362L44.3401 9.48546L49.3044 6.12695Z" fill="#AD4582"/>
<path fill-rule="evenodd" clip-rule="evenodd" d="M48.1863 14.6552C48.1492 14.6552 44.5844 12.5439 42.802 11.4883V17.998L48.1863 14.6552Z" fill="#EF7D00"/>
<path fill-rule="evenodd" clip-rule="evenodd" d="M50.442 16.4668L44.3401 20.5465L58.1855 29.4863V21.3979L50.442 16.4668Z" fill="#F9B221"/>
<path fill-rule="evenodd" clip-rule="evenodd" d="M58.1858 18.3804V10.1404L51.6477 6.12695L51.6844 14.3669L58.1858 18.3804Z" fill="#E6007E"/>
<path fill-rule="evenodd" clip-rule="evenodd" d="M123.311 41.7793H125.821L125.402 50.6689H123.729L123.311 41.7793Z" fill="#1D1D1B" stroke="white" stroke-miterlimit="10"/>
<path fill-rule="evenodd" clip-rule="evenodd" d="M124.566 55.0557C124.148 55.0557 123.819 54.9085 123.55 54.6436C123.281 54.3787 123.132 54.0255 123.132 53.6724C123.132 53.2897 123.281 52.966 123.55 52.7011C123.819 52.4362 124.177 52.2891 124.566 52.2891C124.984 52.2891 125.313 52.4362 125.582 52.7011C125.851 52.966 126 53.2897 126 53.6724C126 54.055 125.851 54.3787 125.582 54.6436C125.313 54.9379 124.984 55.0557 124.566 55.0557Z" fill="#1D1D1B" stroke="white" stroke-miterlimit="10"/>
<path fill-rule="evenodd" clip-rule="evenodd" d="M1 41.7805H5.03322C5.66061 41.7805 6.22824 41.8394 6.76601 41.9571C7.30377 42.0749 7.78178 42.2515 8.20004 42.5164C8.6183 42.7813 8.94693 43.1051 9.15606 43.5172C9.39507 43.9292 9.51457 44.459 9.51457 45.0477C9.51457 45.8719 9.30544 46.5194 8.88718 47.0198C8.46892 47.4908 7.87141 47.844 7.15439 48.0206V48.05C7.54278 48.1089 7.93116 48.2266 8.28967 48.4032C8.64818 48.5798 8.97681 48.7859 9.21581 49.0508C9.4847 49.3157 9.69382 49.6395 9.8432 49.9927C9.99258 50.3459 10.0822 50.7874 10.0822 51.2289C10.0822 51.9059 9.96271 52.4652 9.69382 52.9361C9.45482 53.4071 9.09631 53.7897 8.64818 54.0546C8.20004 54.349 7.66228 54.555 7.03489 54.6727C6.4075 54.7905 5.72036 54.8788 4.94359 54.8788H1V41.7805ZM4.88384 53.1421C5.86974 53.1421 6.58675 52.995 7.06476 52.6712C7.54278 52.3474 7.78178 51.847 7.78178 51.1112C7.78178 50.4048 7.57265 49.8749 7.15439 49.4923C6.73613 49.1097 6.01912 48.9331 5.00334 48.9331H3.2108V53.1421H4.88384ZM4.76434 47.2553C5.63073 47.2553 6.288 47.1081 6.67638 46.7844C7.06476 46.49 7.27389 45.9896 7.27389 45.3126C7.27389 44.6945 7.06476 44.2236 6.6465 43.9292C6.22825 43.6349 5.63073 43.4877 4.79421 43.4877H3.2108V47.2259H4.76434V47.2553ZM18.6864 55.1142C17.6109 55.1142 16.6549 54.9376 15.8183 54.555C14.9818 54.1723 14.2648 53.672 13.6972 53.0538C13.1295 52.4357 12.6814 51.6999 12.3826 50.9051C12.0839 50.081 11.9345 49.2274 11.9345 48.3444C11.9345 47.4613 12.0839 46.6077 12.3826 45.7836C12.6814 44.9594 13.0997 44.2236 13.6673 43.6055C14.2349 42.9873 14.9519 42.487 15.7586 42.1043C16.5951 41.7217 17.5511 41.5451 18.6267 41.5451C19.7022 41.5451 20.6582 41.7217 21.4947 42.1043C22.3312 42.487 23.0483 42.9579 23.6159 43.6055C24.1835 44.2236 24.6018 44.9594 24.9005 45.7542C25.1993 46.5783 25.3487 47.4319 25.3487 48.3149C25.3487 49.198 25.1993 50.081 24.9005 50.9051C24.6018 51.7293 24.1835 52.4652 23.6159 53.0833C23.0483 53.7014 22.3611 54.2018 21.5246 54.5844C20.718 54.9376 19.7619 55.1142 18.6864 55.1142ZM18.6267 53.3188C19.3735 53.3188 20.0009 53.1716 20.5387 52.9067C21.0765 52.6418 21.5246 52.2886 21.913 51.8176C22.2715 51.3761 22.5404 50.8463 22.7196 50.2282C22.8989 49.6395 22.9885 48.9919 22.9885 48.3149C22.9885 47.6379 22.8989 47.0198 22.7196 46.4017C22.5404 45.7836 22.2715 45.2538 21.913 44.8123C21.5545 44.3413 21.1063 43.9881 20.5686 43.7232C20.0308 43.4583 19.4034 43.3111 18.6864 43.3111C17.9694 43.3111 17.342 43.4289 16.7744 43.6938C16.2366 43.9587 15.7586 44.3119 15.4001 44.7534C15.0416 45.1949 14.7428 45.7247 14.5636 46.3428C14.3843 46.9315 14.2947 47.5791 14.2947 48.2561C14.2947 48.9331 14.3843 49.5512 14.5636 50.1693C14.7428 50.7874 15.0117 51.3172 15.3702 51.7882C15.7287 52.2591 16.1768 52.6123 16.7146 52.8772C17.2822 53.1716 17.9096 53.3188 18.6267 53.3188ZM30.3678 43.6349H26.6632V41.7805H36.3728V43.6349H32.6682V54.9082H30.3977V43.6349H30.3678ZM41.3322 55.1142C40.406 55.1142 39.6293 55.0259 38.972 54.8199C38.3147 54.6139 37.7471 54.349 37.2392 53.9957L38.2849 52.3474C38.6434 52.6123 39.0616 52.8184 39.5695 52.995C40.0774 53.1716 40.6749 53.2599 41.3621 53.2599C41.9894 53.2599 42.5571 53.1421 43.065 52.9361C43.5729 52.7301 43.9911 52.4357 44.3496 52.0825C44.7081 51.7293 45.0069 51.2878 45.216 50.7874C45.4251 50.287 45.5447 49.7866 45.6044 49.2274H39.7488V47.4613H45.5745C45.5446 46.9021 45.4251 46.4017 45.216 45.9013C45.0069 45.4304 44.738 44.9889 44.3795 44.6062C44.021 44.2236 43.6027 43.9292 43.0948 43.7232C42.587 43.5172 42.0193 43.3994 41.3621 43.3994C40.7347 43.3994 40.167 43.4877 39.689 43.6643C39.211 43.8409 38.7927 44.047 38.4342 44.3119L37.4782 42.7224C37.8367 42.4281 38.3745 42.1632 39.0317 41.8983C39.689 41.6334 40.4957 41.5156 41.4218 41.5156C42.5272 41.5156 43.4832 41.6922 44.2899 42.0454C45.1264 42.3987 45.8135 42.899 46.3812 43.5172C46.9488 44.1353 47.3671 44.8417 47.6359 45.6659C47.9347 46.49 48.0542 47.3436 48.0542 48.2855C48.0542 49.198 47.9048 50.0516 47.6061 50.8757C47.3073 51.6999 46.8592 52.4357 46.2915 53.0538C45.7239 53.672 45.0368 54.1723 44.1704 54.555C43.3637 54.9376 42.4077 55.1142 41.3322 55.1142ZM53.0733 43.6349H49.3687V41.7805H59.0783V43.6349H55.3737V54.9082H53.1032V43.6349H53.0733ZM67.1149 55.1142C66.0394 55.1142 65.0833 54.9376 64.2468 54.555C63.4103 54.1723 62.6933 53.672 62.1257 53.0538C61.558 52.4357 61.1099 51.6999 60.8111 50.9051C60.5124 50.081 60.363 49.2274 60.363 48.3444C60.363 47.4613 60.5124 46.6077 60.8111 45.7836C61.1099 44.9594 61.5281 44.2236 62.0958 43.6055C62.6634 42.9873 63.3804 42.487 64.1871 42.1043C65.0236 41.7217 65.9796 41.5451 67.0551 41.5451C68.1307 41.5451 69.0867 41.7217 69.9232 42.1043C70.7597 42.487 71.4767 42.9579 72.0444 43.6055C72.612 44.2236 73.0303 44.9594 73.329 45.7542C73.6278 46.5783 73.7772 47.4319 73.7772 48.3149C73.7772 49.198 73.6278 50.081 73.329 50.9051C73.0303 51.7293 72.612 52.4652 72.0444 53.0833C71.4767 53.7014 70.7896 54.2018 69.9531 54.5844C69.1464 54.9376 68.1904 55.1142 67.1149 55.1142ZM67.0551 53.3188C67.802 53.3188 68.4294 53.1716 68.9672 52.9067C69.505 52.6418 69.9531 52.2886 70.3116 51.8176C70.6701 51.3761 70.939 50.8463 71.1182 50.2282C71.2975 49.6395 71.3871 48.9919 71.3871 48.3149C71.3871 47.6379 71.2975 47.0198 71.1182 46.4017C70.939 45.7836 70.6701 45.2538 70.3116 44.8123C69.9531 44.3413 69.505 43.9881 68.9672 43.7232C68.4294 43.4583 67.802 43.3111 67.085 43.3111C66.368 43.3111 65.7406 43.4289 65.173 43.6938C64.6352 43.9587 64.1572 44.3119 63.7987 44.7534C63.4402 45.1949 63.1414 45.7247 62.9622 46.3428C62.7829 46.9315 62.6933 47.5791 62.6933 48.2561C62.6933 48.9331 62.7829 49.5512 62.9622 50.1693C63.1414 50.7874 63.4103 51.3172 63.7688 51.7882C64.1273 52.2591 64.5755 52.6123 65.1132 52.8772C65.7107 53.1716 66.3381 53.3188 67.0551 53.3188ZM75.2112 53.0244H76.2569C76.4959 52.8184 76.6751 52.5829 76.8245 52.318C76.9739 52.0531 77.1232 51.7293 77.2428 51.3761C77.3623 51.0229 77.4519 50.5814 77.5415 50.1104C77.6311 49.6395 77.7208 49.0508 77.7805 48.4032L78.5872 41.7511H86.6536V53.0244H88.0279L87.6096 57.7339H86.1457L85.9366 54.8788H77.2129L76.9739 57.7339H75.4801L75.2112 53.0244ZM84.4428 53.0244V43.6055H80.6187L80.0212 48.7859C79.9017 49.9338 79.6926 50.8463 79.4834 51.4938C79.2444 52.1708 78.9755 52.6712 78.6469 53.0244H84.4428ZM96.6918 55.1142C95.6163 55.1142 94.6603 54.9376 93.8238 54.555C92.9872 54.1723 92.2702 53.672 91.7026 53.0538C91.1349 52.4357 90.6868 51.6999 90.3881 50.9051C90.0893 50.081 89.9399 49.2274 89.9399 48.3444C89.9399 47.4613 90.0893 46.6077 90.3881 45.7836C90.6868 44.9594 91.1051 44.2236 91.6727 43.6055C92.2403 42.9873 92.9574 42.487 93.764 42.1043C94.6005 41.7217 95.5565 41.5451 96.6321 41.5451C97.7076 41.5451 98.6636 41.7217 99.5001 42.1043C100.337 42.487 101.054 42.9579 101.621 43.6055C102.189 44.2236 102.607 44.9594 102.906 45.7542C103.205 46.5783 103.354 47.4319 103.354 48.3149C103.354 49.198 103.205 50.081 102.906 50.9051C102.607 51.7293 102.189 52.4652 101.621 53.0833C101.054 53.7014 100.367 54.2018 99.53 54.5844C98.7234 54.9376 97.7673 55.1142 96.6918 55.1142ZM96.6321 53.3188C97.379 53.3188 98.0064 53.1716 98.5441 52.9067C99.0819 52.6418 99.53 52.2886 99.9184 51.8176C100.277 51.3761 100.546 50.8463 100.725 50.2282C100.904 49.6395 100.994 48.9919 100.994 48.3149C100.994 47.6379 100.904 47.0198 100.725 46.4017C100.546 45.7836 100.277 45.2538 99.9184 44.8123C99.5599 44.3413 99.1118 43.9881 98.574 43.7232C98.0362 43.4583 97.4088 43.3111 96.6918 43.3111C95.9748 43.3111 95.3474 43.4289 94.7798 43.6938C94.242 43.9587 93.764 44.3119 93.4055 44.7534C93.047 45.1949 92.7482 45.7247 92.569 46.3428C92.3897 46.9315 92.3001 47.5791 92.3001 48.2561C92.3001 48.9331 92.3897 49.5512 92.569 50.1693C92.7482 50.7874 93.0171 51.3172 93.3756 51.7882C93.7341 52.2591 94.1823 52.6123 94.72 52.8772C95.2877 53.1716 95.9151 53.3188 96.6321 53.3188ZM107.059 41.7805H109.24L112.197 50.2576C112.377 50.758 112.526 51.1995 112.645 51.6116C112.765 51.9942 112.855 52.3474 112.944 52.5829H112.974C113.064 52.318 113.153 51.9942 113.273 51.6116C113.392 51.2289 113.542 50.758 113.721 50.2576L116.709 41.7805H118.889L120.712 54.9082H118.411L117.426 47.3142C117.366 46.8432 117.306 46.4606 117.276 46.1368C117.246 45.8425 117.216 45.607 117.216 45.4304H117.187C117.127 45.607 117.067 45.8719 116.977 46.1662C116.888 46.4606 116.768 46.8432 116.619 47.2847L113.96 54.8788H111.749L109.06 47.2847C108.911 46.8727 108.791 46.49 108.702 46.1957C108.612 45.8719 108.523 45.6364 108.463 45.4598H108.433C108.403 45.8425 108.343 46.49 108.254 47.373L107.328 54.9082H105.266L107.059 41.7805Z" fill="#1D1D1B" stroke="white" stroke-miterlimit="10"/>
<path fill-rule="evenodd" clip-rule="evenodd" d="M72.0743 53.0536C72.642 52.4355 73.0602 51.6996 73.359 50.8755C73.6577 50.0513 73.8071 49.1978 73.8071 48.2853C73.8071 47.4023 73.6577 46.5488 73.359 45.7246C73.0602 44.9005 72.6121 44.1941 72.0743 43.576C71.5067 42.9579 70.8195 42.4575 69.9532 42.0749C69.1166 41.7217 68.1606 41.5156 67.0851 41.5156C66.0096 41.5156 65.0535 41.6922 64.217 42.0749C63.3805 42.4575 62.6934 42.9579 62.1257 43.576C61.5581 44.1941 61.11 44.9299 60.8411 45.7541C60.5423 46.5782 60.3929 47.4318 60.3929 48.3148C60.3929 49.1978 60.5423 50.0513 60.8411 50.8755C61.1398 51.6996 61.588 52.406 62.1556 53.0241C62.7232 53.6422 63.4403 54.1426 64.2768 54.5252C65.1133 54.9079 66.0693 55.0845 67.1448 55.0845C68.2204 55.0845 69.1764 54.9079 70.0129 54.5252C70.8195 54.2015 71.5067 53.6717 72.0743 53.0536ZM63.022 46.4016C63.2013 45.8129 63.4701 45.2831 63.8585 44.8122C64.217 44.3707 64.695 43.988 65.2328 43.7526C65.7706 43.4877 66.3979 43.3699 67.1448 43.3699C67.8619 43.3699 68.4892 43.5171 69.027 43.782C69.5648 44.0469 70.0129 44.4295 70.3714 44.871C70.7299 45.342 70.9988 45.8718 71.1781 46.4605C71.3573 47.0786 71.4469 47.6967 71.4469 48.3736C71.4469 49.0506 71.3573 49.6687 71.1781 50.2868C70.9988 50.8755 70.7299 51.4053 70.3714 51.8762C70.0129 52.3177 69.5648 52.7004 69.027 52.9653C68.4892 53.2302 67.832 53.3773 67.115 53.3773C66.398 53.3773 65.7706 53.2302 65.2328 52.9653C64.695 52.7004 64.2469 52.3177 63.8884 51.8762C63.5299 51.4053 63.261 50.8755 63.0818 50.2574C62.9025 49.6393 62.8129 49.0212 62.8129 48.3442C62.7531 47.6084 62.8427 46.9903 63.022 46.4016Z" fill="#1D1D1B" stroke="white" stroke-miterlimit="10"/>
<path d="M72.0743 53.0536C72.642 52.4355 73.0602 51.6996 73.359 50.8755C73.6577 50.0513 73.8071 49.1978 73.8071 48.2853C73.8071 47.4023 73.6577 46.5488 73.359 45.7246C73.0602 44.9005 72.6121 44.1941 72.0743 43.576C71.5067 42.9579 70.8195 42.4575 69.9532 42.0749C69.1166 41.7217 68.1606 41.5156 67.0851 41.5156C66.0096 41.5156 65.0535 41.6922 64.217 42.0749C63.3805 42.4575 62.6934 42.9579 62.1257 43.576C61.5581 44.1941 61.11 44.9299 60.8411 45.7541C60.5423 46.5782 60.3929 47.4318 60.3929 48.3148C60.3929 49.1978 60.5423 50.0513 60.8411 50.8755C61.1398 51.6996 61.588 52.406 62.1556 53.0241C62.7232 53.6422 63.4403 54.1426 64.2768 54.5252C65.1133 54.9079 66.0693 55.0845 67.1448 55.0845C68.2204 55.0845 69.1764 54.9079 70.0129 54.5252C70.8195 54.2015 71.5067 53.6717 72.0743 53.0536ZM63.022 46.4016C63.2013 45.8129 63.4701 45.2831 63.8585 44.8122C64.217 44.3707 64.695 43.988 65.2328 43.7526C65.7706 43.4877 66.3979 43.3699 67.1448 43.3699C67.8619 43.3699 68.4892 43.5171 69.027 43.782C69.5648 44.0469 70.0129 44.4295 70.3714 44.871C70.7299 45.342 70.9988 45.8718 71.1781 46.4605C71.3573 47.0786 71.4469 47.6967 71.4469 48.3736C71.4469 49.0506 71.3573 49.6687 71.1781 50.2868C70.9988 50.8755 70.7299 51.4053 70.3714 51.8762C70.0129 52.3177 69.5648 52.7004 69.027 52.9653C68.4892 53.2302 67.832 53.3773 67.115 53.3773C66.398 53.3773 65.7706 53.2302 65.2328 52.9653C64.695 52.7004 64.2469 52.3177 63.8884 51.8762C63.5299 51.4053 63.261 50.8755 63.0818 50.2574C62.9025 49.6393 62.8129 49.0212 62.8129 48.3442C62.7531 47.6084 62.8427 46.9903 63.022 46.4016Z" fill="#1D1D1B" stroke="white" stroke-width="0.216" stroke-miterlimit="22.9256"/>
<path fill-rule="evenodd" clip-rule="evenodd" d="M77.6013 50.1389C77.5117 50.6099 77.422 51.0514 77.3025 51.4047C77.183 51.7579 77.0337 52.0817 76.8843 52.3466C76.7349 52.6115 76.5258 52.847 76.3166 53.053H75.271L75.5996 57.7627H77.0934L77.3324 54.9075H85.9964L86.2055 57.7627H87.6694L88.0877 53.053H86.7134V41.7793H78.6469L77.8403 48.4317C77.7507 49.0793 77.661 49.6385 77.6013 50.1389ZM84.4428 43.6337V53.053H78.6171C78.9457 52.6998 79.2445 52.1994 79.4536 51.5224C79.6926 50.8454 79.8719 49.9329 79.9914 48.8143L80.5889 43.6337H84.4428Z" fill="#1D1D1B" stroke="white" stroke-miterlimit="10"/>
<path d="M77.6013 50.1389C77.5117 50.6099 77.422 51.0514 77.3025 51.4047C77.183 51.7579 77.0337 52.0817 76.8843 52.3466C76.7349 52.6115 76.5258 52.847 76.3166 53.053H75.271L75.5996 57.7627H77.0934L77.3324 54.9075H85.9964L86.2055 57.7627H87.6694L88.0877 53.053H86.7134V41.7793H78.6469L77.8403 48.4317C77.7507 49.0793 77.661 49.6385 77.6013 50.1389ZM84.4428 43.6337V53.053H78.6171C78.9457 52.6998 79.2445 52.1994 79.4536 51.5224C79.6926 50.8454 79.8719 49.9329 79.9914 48.8143L80.5889 43.6337H84.4428Z" fill="#1D1D1B" stroke="white" stroke-width="0.216" stroke-miterlimit="22.9256"/>
<path fill-rule="evenodd" clip-rule="evenodd" d="M55.3737 54.8779V43.6337H59.0484V41.7793H49.3687V43.6337H53.0732V54.8779H55.3737Z" fill="#1D1D1B" stroke="white" stroke-miterlimit="10"/>
<path d="M55.3737 54.8779V43.6337H59.0484V41.7793H49.3687V43.6337H53.0732V54.8779H55.3737Z" fill="#1D1D1B" stroke="white" stroke-width="0.216" stroke-miterlimit="22.9256"/>
<path fill-rule="evenodd" clip-rule="evenodd" d="M109.06 47.284L111.749 54.8788H113.96L116.619 47.284C116.768 46.8425 116.888 46.4892 116.977 46.1654C117.067 45.871 117.157 45.6061 117.187 45.4295H117.216C117.216 45.5767 117.246 45.8122 117.276 46.136C117.306 46.4303 117.366 46.8425 117.426 47.3135L118.412 54.9082H120.712L118.89 41.7793H116.709L113.721 50.2572C113.542 50.7576 113.392 51.1991 113.273 51.6113L112.974 52.5827H112.944L112.646 51.6113C112.526 51.2286 112.377 50.7576 112.197 50.2572L109.24 41.7793H107.059L105.236 54.9082H107.298L108.224 47.3723C108.314 46.4892 108.373 45.8416 108.403 45.4589H108.433C108.493 45.6355 108.582 45.9005 108.672 46.1948C108.792 46.4892 108.911 46.8719 109.06 47.284Z" fill="#1D1D1B" stroke="white" stroke-miterlimit="10"/>
<path d="M109.06 47.284L111.749 54.8788H113.96L116.619 47.284C116.768 46.8425 116.888 46.4892 116.977 46.1654C117.067 45.871 117.157 45.6061 117.187 45.4295H117.216C117.216 45.5767 117.246 45.8122 117.276 46.136C117.306 46.4303 117.366 46.8425 117.426 47.3135L118.412 54.9082H120.712L118.89 41.7793H116.709L113.721 50.2572C113.542 50.7576 113.392 51.1991 113.273 51.6113L112.974 52.5827H112.944L112.646 51.6113C112.526 51.2286 112.377 50.7576 112.197 50.2572L109.24 41.7793H107.059L105.236 54.9082H107.298L108.224 47.3723C108.314 46.4892 108.373 45.8416 108.403 45.4589H108.433C108.493 45.6355 108.582 45.9005 108.672 46.1948C108.792 46.4892 108.911 46.8719 109.06 47.284Z" fill="#1D1D1B" stroke="white" stroke-width="0.216" stroke-miterlimit="22.9256"/>
<path fill-rule="evenodd" clip-rule="evenodd" d="M123.311 41.7793L123.729 50.6689H125.402L125.821 41.7793H123.311Z" fill="#1D1D1B" stroke="white" stroke-miterlimit="10"/>
<path d="M123.311 41.7793L123.729 50.6689H125.402L125.821 41.7793H123.311Z" fill="#1D1D1B" stroke="white" stroke-width="0.216" stroke-miterlimit="22.9256"/>
<path fill-rule="evenodd" clip-rule="evenodd" d="M3.2108 53.1427V48.9333H5.00334C5.98924 48.9333 6.70626 49.11 7.1544 49.4926C7.57266 49.8753 7.78179 50.4051 7.78179 51.1116C7.78179 51.8475 7.54278 52.3479 7.06477 52.6717C6.58676 52.9955 5.86974 53.1427 4.88384 53.1427H3.2108ZM6.67638 46.814C6.288 47.1083 5.66061 47.2849 4.76434 47.2849H3.2108V43.5466H4.79421C5.60086 43.5466 6.22825 43.6937 6.64651 43.9881C7.06477 44.2825 7.2739 44.724 7.2739 45.3716C7.24402 45.9897 7.06477 46.4902 6.67638 46.814ZM7.12452 47.9914C7.87141 47.8148 8.43905 47.491 8.85731 46.9906C9.27557 46.5196 9.4847 45.872 9.4847 45.0184C9.4847 44.4002 9.3652 43.8998 9.12619 43.4877C8.88719 43.0756 8.55855 42.7224 8.17017 42.4869C7.75191 42.222 7.2739 42.0453 6.73614 41.9276C6.19837 41.8098 5.60086 41.751 5.00334 41.751H1V54.8794H4.94359C5.69049 54.8794 6.4075 54.8205 7.03489 54.6733C7.66228 54.5556 8.20005 54.3201 8.64818 54.0552C9.09632 53.7608 9.45482 53.3782 9.69383 52.9366C9.93284 52.4656 10.0822 51.9064 10.0822 51.2293C10.0822 50.7584 9.99259 50.3463 9.84321 49.993C9.69383 49.6104 9.4847 49.316 9.21582 49.0511C8.94694 48.7862 8.64818 48.5507 8.28967 48.4035C7.93116 48.2269 7.54278 48.1386 7.1544 48.0503V47.9914H7.12452Z" fill="#1D1D1B" stroke="white" stroke-miterlimit="10"/>
<path d="M3.2108 53.1427V48.9333H5.00334C5.98924 48.9333 6.70626 49.11 7.1544 49.4926C7.57266 49.8753 7.78179 50.4051 7.78179 51.1116C7.78179 51.8475 7.54278 52.3479 7.06477 52.6717C6.58676 52.9955 5.86974 53.1427 4.88384 53.1427H3.2108ZM6.67638 46.814C6.288 47.1083 5.66061 47.2849 4.76434 47.2849H3.2108V43.5466H4.79421C5.60086 43.5466 6.22825 43.6937 6.64651 43.9881C7.06477 44.2825 7.2739 44.724 7.2739 45.3716C7.24402 45.9897 7.06477 46.4902 6.67638 46.814ZM7.12452 47.9914C7.87141 47.8148 8.43905 47.491 8.85731 46.9906C9.27557 46.5196 9.4847 45.872 9.4847 45.0184C9.4847 44.4002 9.3652 43.8998 9.12619 43.4877C8.88719 43.0756 8.55855 42.7224 8.17017 42.4869C7.75191 42.222 7.2739 42.0453 6.73614 41.9276C6.19837 41.8098 5.60086 41.751 5.00334 41.751H1V54.8794H4.94359C5.69049 54.8794 6.4075 54.8205 7.03489 54.6733C7.66228 54.5556 8.20005 54.3201 8.64818 54.0552C9.09632 53.7608 9.45482 53.3782 9.69383 52.9366C9.93284 52.4656 10.0822 51.9064 10.0822 51.2293C10.0822 50.7584 9.99259 50.3463 9.84321 49.993C9.69383 49.6104 9.4847 49.316 9.21582 49.0511C8.94694 48.7862 8.64818 48.5507 8.28967 48.4035C7.93116 48.2269 7.54278 48.1386 7.1544 48.0503V47.9914H7.12452Z" fill="#1D1D1B" stroke="white" stroke-width="0.216" stroke-miterlimit="22.9256"/>
<path fill-rule="evenodd" clip-rule="evenodd" d="M12.3827 45.7836C12.0839 46.6078 11.9346 47.4613 11.9346 48.3444C11.9346 49.2274 12.0839 50.081 12.3827 50.9052C12.6815 51.7293 13.1296 52.4357 13.6972 53.0539C14.2649 53.672 14.9819 54.1724 15.8184 54.555C16.6549 54.9376 17.6109 55.1143 18.6865 55.1143C19.762 55.1143 20.718 54.9376 21.5545 54.555C22.3911 54.1724 23.0782 53.672 23.6458 53.0539C24.2135 52.4357 24.6317 51.6999 24.9305 50.8757C25.2292 50.0516 25.3786 49.198 25.3786 48.2855C25.3786 47.4025 25.2292 46.5489 24.9305 45.7247C24.6317 44.9006 24.1836 44.1941 23.6458 43.576C23.0782 42.9579 22.391 42.4575 21.5247 42.0749C20.6881 41.7217 19.7321 41.5156 18.6566 41.5156C17.5811 41.5156 16.625 41.6922 15.7885 42.0749C14.952 42.4575 14.2649 42.9579 13.6972 43.576C13.0997 44.2236 12.6815 44.9594 12.3827 45.7836ZM22.9886 48.3444C22.9886 49.0214 22.8989 49.6395 22.7197 50.2576C22.5404 50.8463 22.2715 51.3761 21.913 51.8471C21.5545 52.2886 21.1064 52.6712 20.5388 52.9361C20.001 53.201 19.3437 53.3482 18.6267 53.3482C17.9097 53.3482 17.2823 53.201 16.7446 52.9361C16.2068 52.6712 15.7587 52.2886 15.4001 51.8471C15.0416 51.3761 14.7728 50.8463 14.5935 50.2282C14.4143 49.61 14.3246 48.9919 14.3246 48.3149C14.3246 47.638 14.4143 47.0198 14.5935 46.4017C14.7728 45.813 15.0715 45.2832 15.43 44.8123C15.7885 44.3708 16.2665 43.9881 16.8043 43.7526C17.3421 43.4877 17.9695 43.37 18.7163 43.37C19.4334 43.37 20.0607 43.5172 20.5985 43.7821C21.1363 44.047 21.5844 44.4296 21.9429 44.8711C22.3014 45.3421 22.5703 45.8719 22.7496 46.4606C22.8989 47.0493 22.9886 47.6674 22.9886 48.3444Z" fill="#1D1D1B" stroke="white" stroke-miterlimit="10"/>
<path d="M12.3827 45.7836C12.0839 46.6078 11.9346 47.4613 11.9346 48.3444C11.9346 49.2274 12.0839 50.081 12.3827 50.9052C12.6815 51.7293 13.1296 52.4357 13.6972 53.0539C14.2649 53.672 14.9819 54.1724 15.8184 54.555C16.6549 54.9376 17.6109 55.1143 18.6865 55.1143C19.762 55.1143 20.718 54.9376 21.5545 54.555C22.3911 54.1724 23.0782 53.672 23.6458 53.0539C24.2135 52.4357 24.6317 51.6999 24.9305 50.8757C25.2292 50.0516 25.3786 49.198 25.3786 48.2855C25.3786 47.4025 25.2292 46.5489 24.9305 45.7247C24.6317 44.9006 24.1836 44.1941 23.6458 43.576C23.0782 42.9579 22.391 42.4575 21.5247 42.0749C20.6881 41.7217 19.7321 41.5156 18.6566 41.5156C17.5811 41.5156 16.625 41.6922 15.7885 42.0749C14.952 42.4575 14.2649 42.9579 13.6972 43.576C13.0997 44.2236 12.6815 44.9594 12.3827 45.7836ZM22.9886 48.3444C22.9886 49.0214 22.8989 49.6395 22.7197 50.2576C22.5404 50.8463 22.2715 51.3761 21.913 51.8471C21.5545 52.2886 21.1064 52.6712 20.5388 52.9361C20.001 53.201 19.3437 53.3482 18.6267 53.3482C17.9097 53.3482 17.2823 53.201 16.7446 52.9361C16.2068 52.6712 15.7587 52.2886 15.4001 51.8471C15.0416 51.3761 14.7728 50.8463 14.5935 50.2282C14.4143 49.61 14.3246 48.9919 14.3246 48.3149C14.3246 47.638 14.4143 47.0198 14.5935 46.4017C14.7728 45.813 15.0715 45.2832 15.43 44.8123C15.7885 44.3708 16.2665 43.9881 16.8043 43.7526C17.3421 43.4877 17.9695 43.37 18.7163 43.37C19.4334 43.37 20.0607 43.5172 20.5985 43.7821C21.1363 44.047 21.5844 44.4296 21.9429 44.8711C22.3014 45.3421 22.5703 45.8719 22.7496 46.4606C22.8989 47.0493 22.9886 47.6674 22.9886 48.3444Z" fill="#1D1D1B" stroke="white" stroke-width="0.216" stroke-miterlimit="22.9256"/>
<path fill-rule="evenodd" clip-rule="evenodd" d="M30.3677 43.6337V54.8779H32.6382V43.6337H36.3428V41.7793H26.6631V43.6337H30.3677Z" fill="#1D1D1B" stroke="white" stroke-miterlimit="10"/>
<path d="M30.3677 43.6337V54.8779H32.6382V43.6337H36.3428V41.7793H26.6631V43.6337H30.3677Z" fill="#1D1D1B" stroke="white" stroke-width="0.216" stroke-miterlimit="22.9256"/>
<path fill-rule="evenodd" clip-rule="evenodd" d="M44.3794 44.6062C44.7379 44.9889 45.0068 45.4009 45.2159 45.9013C45.4251 46.4017 45.5446 46.9021 45.5745 47.4613H39.7487V49.2274H45.6043C45.5745 49.7867 45.4251 50.287 45.2159 50.7874C45.0068 51.2878 44.7081 51.6999 44.3496 52.0825C43.991 52.4357 43.5429 52.7301 43.0649 52.9361C42.557 53.1422 41.9894 53.2599 41.362 53.2599C40.6748 53.2599 40.0773 53.1716 39.5694 52.995C39.0616 52.8184 38.6433 52.5829 38.2848 52.3474L37.2391 53.9958C37.747 54.349 38.3147 54.6433 38.9719 54.8199C39.6292 55.026 40.406 55.1143 41.3321 55.1143C42.4076 55.1143 43.3637 54.9376 44.2002 54.555C45.0367 54.1724 45.7537 53.7014 46.3213 53.0539C46.889 52.4357 47.3072 51.6999 47.6359 50.8757C47.9346 50.0516 48.084 49.198 48.084 48.2855C48.084 47.373 47.9346 46.49 47.6658 45.6659C47.367 44.8417 46.9487 44.1353 46.411 43.5172C45.8433 42.899 45.1562 42.3987 44.3197 42.0454C43.4832 41.6922 42.5271 41.5156 41.4516 41.5156C40.5255 41.5156 39.7487 41.6334 39.0616 41.8983C38.4043 42.1632 37.8665 42.4281 37.508 42.7224L38.464 44.3119C38.8225 44.047 39.2408 43.8409 39.7188 43.6643C40.1968 43.4877 40.7346 43.3994 41.3919 43.3994C42.0491 43.3994 42.6168 43.5172 43.1246 43.7232C43.6027 43.9587 44.0209 44.253 44.3794 44.6062Z" fill="#1D1D1B" stroke="white" stroke-miterlimit="10"/>
<path d="M44.3794 44.6062C44.7379 44.9889 45.0068 45.4009 45.2159 45.9013C45.4251 46.4017 45.5446 46.9021 45.5745 47.4613H39.7487V49.2274H45.6043C45.5745 49.7867 45.4251 50.287 45.2159 50.7874C45.0068 51.2878 44.7081 51.6999 44.3496 52.0825C43.991 52.4357 43.5429 52.7301 43.0649 52.9361C42.557 53.1422 41.9894 53.2599 41.362 53.2599C40.6748 53.2599 40.0773 53.1716 39.5694 52.995C39.0616 52.8184 38.6433 52.5829 38.2848 52.3474L37.2391 53.9958C37.747 54.349 38.3147 54.6433 38.9719 54.8199C39.6292 55.026 40.406 55.1143 41.3321 55.1143C42.4076 55.1143 43.3637 54.9376 44.2002 54.555C45.0367 54.1724 45.7537 53.7014 46.3213 53.0539C46.889 52.4357 47.3072 51.6999 47.6359 50.8757C47.9346 50.0516 48.084 49.198 48.084 48.2855C48.084 47.373 47.9346 46.49 47.6658 45.6659C47.367 44.8417 46.9487 44.1353 46.411 43.5172C45.8433 42.899 45.1562 42.3987 44.3197 42.0454C43.4832 41.6922 42.5271 41.5156 41.4516 41.5156C40.5255 41.5156 39.7487 41.6334 39.0616 41.8983C38.4043 42.1632 37.8665 42.4281 37.508 42.7224L38.464 44.3119C38.8225 44.047 39.2408 43.8409 39.7188 43.6643C40.1968 43.4877 40.7346 43.3994 41.3919 43.3994C42.0491 43.3994 42.6168 43.5172 43.1246 43.7232C43.6027 43.9587 44.0209 44.253 44.3794 44.6062Z" fill="#1D1D1B" stroke="white" stroke-width="0.216" stroke-miterlimit="22.9256"/>
<path fill-rule="evenodd" clip-rule="evenodd" d="M90.3878 50.9052C90.6866 51.7293 91.1347 52.4357 91.7024 53.0539C92.27 53.672 92.987 54.1724 93.8235 54.555C94.6601 54.9376 95.6161 55.1143 96.6916 55.1143C97.7671 55.1143 98.7231 54.9376 99.5597 54.555C100.396 54.1724 101.083 53.672 101.651 53.0539C102.219 52.4357 102.637 51.6999 102.936 50.8757C103.234 50.0516 103.384 49.198 103.384 48.2855C103.384 47.4025 103.234 46.5489 102.936 45.7247C102.637 44.9006 102.189 44.1941 101.651 43.576C101.083 42.9579 100.396 42.4575 99.5298 42.0749C98.6933 41.7217 97.7373 41.5156 96.6617 41.5156C95.5862 41.5156 94.6302 41.6922 93.7937 42.0749C92.9571 42.4575 92.27 42.9579 91.7024 43.576C91.1347 44.1941 90.6866 44.93 90.4177 45.7542C90.119 46.5783 89.9696 47.4319 89.9696 48.3149C89.9397 49.2274 90.0891 50.081 90.3878 50.9052ZM98.5439 52.9067C98.0061 53.1716 97.3489 53.3188 96.6319 53.3188C95.9148 53.3188 95.2874 53.1716 94.7497 52.9067C94.2119 52.6418 93.7638 52.2591 93.4053 51.8176C93.0468 51.3467 92.7779 50.8169 92.5986 50.1987C92.4194 49.5806 92.3298 48.9625 92.3298 48.2855C92.3298 47.6085 92.4194 46.9904 92.5986 46.3723C92.7779 45.7836 93.0468 45.2538 93.4352 44.7828C93.7937 44.3413 94.2717 43.9587 94.8094 43.7232C95.3472 43.4583 95.9746 43.3406 96.7215 43.3406C97.4385 43.3406 98.0659 43.4877 98.6037 43.7526C99.1414 44.0175 99.5895 44.4002 99.9481 44.8417C100.307 45.3126 100.575 45.8425 100.755 46.4311C100.934 47.0493 101.024 47.6674 101.024 48.3444C101.024 49.0214 100.934 49.6395 100.755 50.2576C100.575 50.8463 100.307 51.3761 99.9481 51.8471C99.5597 52.2886 99.0817 52.6418 98.5439 52.9067Z" fill="#1D1D1B" stroke="white" stroke-miterlimit="10"/>
<path d="M90.3878 50.9052C90.6866 51.7293 91.1347 52.4357 91.7024 53.0539C92.27 53.672 92.987 54.1724 93.8235 54.555C94.6601 54.9376 95.6161 55.1143 96.6916 55.1143C97.7671 55.1143 98.7231 54.9376 99.5597 54.555C100.396 54.1724 101.083 53.672 101.651 53.0539C102.219 52.4357 102.637 51.6999 102.936 50.8757C103.234 50.0516 103.384 49.198 103.384 48.2855C103.384 47.4025 103.234 46.5489 102.936 45.7247C102.637 44.9006 102.189 44.1941 101.651 43.576C101.083 42.9579 100.396 42.4575 99.5298 42.0749C98.6933 41.7217 97.7373 41.5156 96.6617 41.5156C95.5862 41.5156 94.6302 41.6922 93.7937 42.0749C92.9571 42.4575 92.27 42.9579 91.7024 43.576C91.1347 44.1941 90.6866 44.93 90.4177 45.7542C90.119 46.5783 89.9696 47.4319 89.9696 48.3149C89.9397 49.2274 90.0891 50.081 90.3878 50.9052ZM98.5439 52.9067C98.0061 53.1716 97.3489 53.3188 96.6319 53.3188C95.9148 53.3188 95.2874 53.1716 94.7497 52.9067C94.2119 52.6418 93.7638 52.2591 93.4053 51.8176C93.0468 51.3467 92.7779 50.8169 92.5986 50.1987C92.4194 49.5806 92.3298 48.9625 92.3298 48.2855C92.3298 47.6085 92.4194 46.9904 92.5986 46.3723C92.7779 45.7836 93.0468 45.2538 93.4352 44.7828C93.7937 44.3413 94.2717 43.9587 94.8094 43.7232C95.3472 43.4583 95.9746 43.3406 96.7215 43.3406C97.4385 43.3406 98.0659 43.4877 98.6037 43.7526C99.1414 44.0175 99.5895 44.4002 99.9481 44.8417C100.307 45.3126 100.575 45.8425 100.755 46.4311C100.934 47.0493 101.024 47.6674 101.024 48.3444C101.024 49.0214 100.934 49.6395 100.755 50.2576C100.575 50.8463 100.307 51.3761 99.9481 51.8471C99.5597 52.2886 99.0817 52.6418 98.5439 52.9067Z" fill="#1D1D1B" stroke="white" stroke-width="0.216" stroke-miterlimit="22.9256"/>
<path fill-rule="evenodd" clip-rule="evenodd" d="M123.52 52.7011C123.251 52.966 123.102 53.2897 123.102 53.6724C123.102 54.055 123.251 54.3787 123.52 54.6436C123.789 54.9085 124.147 55.0557 124.536 55.0557C124.954 55.0557 125.282 54.9085 125.551 54.6436C125.82 54.3787 125.97 54.0255 125.97 53.6724C125.97 53.2897 125.82 52.966 125.551 52.7011C125.282 52.4362 124.924 52.2891 124.536 52.2891C124.147 52.2891 123.819 52.4362 123.52 52.7011Z" fill="#1D1D1B" stroke="white" stroke-miterlimit="10"/>
<path d="M123.52 52.7011C123.251 52.966 123.102 53.2897 123.102 53.6724C123.102 54.055 123.251 54.3787 123.52 54.6436C123.789 54.9085 124.147 55.0557 124.536 55.0557C124.954 55.0557 125.282 54.9085 125.551 54.6436C125.82 54.3787 125.97 54.0255 125.97 53.6724C125.97 53.2897 125.82 52.966 125.551 52.7011C125.282 52.4362 124.924 52.2891 124.536 52.2891C124.147 52.2891 123.819 52.4362 123.52 52.7011Z" fill="#1D1D1B" stroke="white" stroke-width="0.216" stroke-miterlimit="22.9256"/>
</g>
</svg>
