<svg xmlns="http://www.w3.org/2000/svg" viewBox="0 0 605.49 57.02"><defs><style>.cls-1{fill:#1d1d1b;}</style></defs><g id="Слой_2" data-name="Слой 2"><g id="Слой_1-2" data-name="Слой 1"><path class="cls-1" d="M14.07,6.5H4.17l.67,8.37h5.81L0,57H10.17L13,44.87H26.66L29.44,57H39.62L26.84,6.5Zm.79,30,3.83-16.72.51-4.4a.61.61,0,0,1,1.22,0l.51,4.4L24.75,36.5Z"/><path class="cls-1" d="M82.27,57V6.5H51.46Q51.38,17.92,51,26.35T50,41c-.19,2.45-.76,4.5-2.09,5.77-1.74,1.64-2.89,1.37-5,1.8L45.46,57c3.91-.76,7.06-1.43,9.47-3.86a16.28,16.28,0,0,0,4.51-9.42,117.11,117.11,0,0,0,1-12.38c.16-4.73.32-10,.47-15.84H72.09V57Z"/><polygon class="cls-1" points="101.97 57.02 112.14 57.02 112.14 15.52 123.62 15.52 123.62 6.52 90.42 6.52 90.42 15.52 101.97 15.52 101.97 57.02"/><path class="cls-1" d="M140.37,6.5h-9.84l.66,8.37h5.75L126.29,57h10.17l2.78-12.15H153L155.73,57H165.9L153.13,6.5Zm.78,30L145,19.78l.5-4.4a.59.59,0,0,1,0-.23.52.52,0,0,1,.14-.19.53.53,0,0,1,.2-.13.9.9,0,0,1,.46,0,.57.57,0,0,1,.21.13.64.64,0,0,1,.13.19.59.59,0,0,1,.05.23l.5,4.4L151,36.5Z"/><polygon class="cls-1" points="236.1 57.02 246.27 57 246.27 15.5 264.36 15.5 264.36 6.5 236.1 6.5 236.1 57.02"/><polygon class="cls-1" points="272.57 57.02 303.09 57.02 303.09 48.02 281.8 48.02 281.8 36.02 301.86 36.02 301.86 27.5 281.8 27.5 281.8 15.5 303.09 15.5 303.09 6.5 272.57 6.5 272.57 57.02"/><path class="cls-1" d="M330.91,6.5H312.22V57l10,0V36.19h8.69q7,0,11-3.93t4-10.64q0-7.12-4-11.12T330.91,6.5Zm5.74,15a6.65,6.65,0,0,1-1.58,4.59,5.66,5.66,0,0,1-2,1.37,5.77,5.77,0,0,1-2.4.39h-8.44V14.8h8.44a5.62,5.62,0,0,1,2.4.4,5.54,5.54,0,0,1,2,1.37A7.18,7.18,0,0,1,336.65,21.51Z"/><path class="cls-1" d="M374.41,25.55a.76.76,0,0,1-.69.44.74.74,0,0,1-.41-.11.79.79,0,0,1-.27-.33l-10.11-19h-8.29V57h9.6V33.13l-.93-5.92a.61.61,0,0,1,0-.44.64.64,0,0,1,.32-.31c.28-.12.53,0,.72.39l7.21,13h3.76l7.72-13c.24-.39.5-.51.79-.39s.39.37.29.75l-.94,5.92V57h9.56V6.5h-8.37Z"/><polygon class="cls-1" points="403 57.02 433.52 57.02 433.52 48.02 412.22 48.02 412.22 36.02 432.28 36.02 432.28 27.5 412.22 27.5 412.22 15.5 433.52 15.5 433.52 6.5 403 6.5 403 57.02"/><polygon class="cls-1" points="440.92 15.52 452.47 15.52 452.47 57.02 462.64 57.02 462.64 15.52 474.12 15.52 474.12 6.52 440.92 6.52 440.92 15.52"/><polygon class="cls-1" points="192.36 13.12 194.72 0 183.75 0 185.78 13.12 192.36 13.12"/><polygon class="cls-1" points="592.07 27.43 592.07 14.01 583.57 14.01 583.57 27.43 570.15 27.43 570.15 36 583.57 36 583.57 49.42 592.07 49.42 592.07 36 605.49 36 605.49 27.43 592.07 27.43"/><polygon class="cls-1" points="196.82 26.99 180.89 44.66 180.89 6.5 171.13 6.5 171.13 57.02 180.89 57.02 180.89 57 196.82 39.33 196.82 57.02 206.78 57.02 206.78 6.5 196.82 6.5 196.82 26.99"/><polygon class="cls-1" points="509.49 27 493.56 44.67 493.56 6.5 483.8 6.5 483.8 57.02 493.56 57.02 493.56 57.01 509.49 39.33 509.49 57.02 519.45 57.02 519.45 6.5 509.49 6.5 509.49 27"/><polygon class="cls-1" points="548.97 27.57 559.08 27.57 568.97 6.5 558.22 6.5 548.97 27.57"/><polygon class="cls-1" points="548.96 35.94 548.96 27.57 544.57 27.57 539.1 27.57 539.1 6.5 529.14 6.5 529.14 57.02 539.1 57.02 539.1 35.94 544.57 35.94 544.57 35.95 548.97 35.95 558.07 57.02 568.75 57.02 559.53 35.94 548.96 35.94"/></g></g></svg>